<svg width="125.9766736287666" height="200.3779986381531" viewBox="0 0 125.9766736287666 200.3779986381531"
     class="css-1j8o68f">
    <g id="SvgjsG1985" featurekey="Wg4LIr-0"
       transform="matrix(9.912535561205312,0,0,9.912535561205312,5.043727492732057,-45.01748532509448)" fill="#ffffff">
        <path
            d="M7.36 6.66 c1.88 0 3.6 0.78 4.84 2 l-1.58 1.62 c-0.84 -0.84 -2 -1.36 -3.26 -1.36 c-2.54 0 -4.58 2.06 -4.58 4.6 c0 2.52 2.04 4.6 4.58 4.6 c1.26 0 2.42 -0.54 3.26 -1.36 l1.58 1.6 c-1.24 1.26 -2.96 2.02 -4.84 2.02 c-3.8 0 -6.86 -3.08 -6.86 -6.86 c0 -3.8 3.06 -6.86 6.86 -6.86 z M7.36 11.88 c0.9 0 1.62 0.74 1.62 1.64 s-0.72 1.62 -1.62 1.62 c-0.92 0 -1.64 -0.72 -1.64 -1.62 s0.72 -1.64 1.64 -1.64 z"></path>
    </g>
    <g id="SvgjsG1986" featurekey="qafomr-0" transform="matrix(1.7,0,0,1.7,30.810000324249266,166.03800058364868)"
       fill="#ffffff">
        <path
            d="M6.14 9.42 c1.9 0 3.5 0.8 4.48 2.48 l-2.4 1.14 c-0.52 -0.44 -0.94 -0.84 -2.04 -0.84 c-1.2 0 -2.42 0.92 -2.42 2.62 c0 1.68 1.22 2.56 2.42 2.56 c1.1 0 1.52 -0.36 2.04 -0.8 l2.44 1.14 c-1.02 1.68 -2.58 2.44 -4.52 2.44 c-2.32 0 -5.44 -1.66 -5.44 -5.34 c0 -3.62 3.12 -5.4 5.44 -5.4 z M18.66 9.44 c1.94 0 3.92 1.3 3.92 4.6 l0 5.96 l-3.16 0 l0 -5.74 c0 -1.58 -0.54 -2.08 -1.54 -2.08 c-1.42 0 -2.24 1.38 -2.44 1.98 l0 5.84 l-3.16 0 l0 -14.14 l3.16 0 l0 5.54 c0.2 -0.5 1.26 -1.96 3.22 -1.96 z M31.98 9.6 l3.16 0 l0 10.4 l-3.16 0 l0 -1.04 c-0.14 0.36 -1.08 1.24 -2.68 1.24 c-2.38 0 -5.12 -1.7 -5.12 -5.42 c0 -3.58 2.74 -5.36 5.12 -5.36 c1.6 0 2.54 0.92 2.68 1.14 l0 -0.96 z M29.76 17.42 c1.3 0 2.36 -0.9 2.36 -2.64 c0 -1.68 -1.06 -2.58 -2.36 -2.58 c-1.36 0 -2.52 0.92 -2.52 2.58 c0 1.72 1.16 2.64 2.52 2.64 z M42.239999999999995 17.36 c0.56 0 0.96 -0.08 1.4 -0.2 l0 2.62 c-0.44 0.2 -1.16 0.34 -2.22 0.34 c-1.74 0 -3.2 -0.58 -3.2 -3.78 l0 -4.14 l-1.46 0 l0 -2.6 l1.46 0 l0 -2.44 l3.16 0 l0 2.44 l2.22 0 l0 2.6 l-2.22 0 l0 4.14 c0 0.46 0.12 1.02 0.86 1.02 z"></path>
    </g>
</svg>
